HIERARCHY
ROOT Hips
{
  OFFSET 3.13124 94.3669 -3.18751
  CHANNELS  6 Xposition Yposition Zposition Zrotation Xrotation Yrotation
  JOINT LeftUpLeg
  {
    OFFSET 8.64259 1.95398 -2.38835
    CHANNELS 3 Zrotation Xrotation Yrotation
    JOINT LeftLeg
    {
      OFFSET 43.7702 0 0
      CHANNELS 3 Zrotation Xrotation Yrotation
      JOINT LeftFoot
      {
        OFFSET 40.6238 0 0
        CHANNELS 3 Zrotation Xrotation Yrotation
        JOINT LeftToeBase
        {
          OFFSET 12.7242 0 0
          CHANNELS 3 Zrotation Xrotation Yrotation
          End Site
          {
            OFFSET 0 0 0
          }
        }
      }
    }
  }
  JOINT RightUpLeg
  {
    OFFSET -8.2249 1.95398 -2.59336
    CHANNELS 3 Zrotation Xrotation Yrotation
    JOINT RightLeg
    {
      OFFSET 43.5653 0 0
      CHANNELS 3 Zrotation Xrotation Yrotation
      JOINT RightFoot
      {
        OFFSET 40.6238 0 0
        CHANNELS 3 Zrotation Xrotation Yrotation
        JOINT RightToeBase
        {
          OFFSET 12.7242 0 0
          CHANNELS 3 Zrotation Xrotation Yrotation
          End Site
          {
            OFFSET 0 0 0
          }
        }
      }
    }
  }
  JOINT Spine
  {
    OFFSET 0.165834 0.87714 6.61349
    CHANNELS 3 Zrotation Xrotation Yrotation
    JOINT Spine1
    {
      OFFSET 7.38962 1.71661e-005 0
      CHANNELS 3 Zrotation Xrotation Yrotation
      JOINT Spine2
      {
        OFFSET 11.9445 1.14441e-005 0
        CHANNELS 3 Zrotation Xrotation Yrotation
        JOINT Spine3
        {
          OFFSET 14.7254 4.19617e-005 0
          CHANNELS 3 Zrotation Xrotation Yrotation
          JOINT Spine4
          {
            OFFSET 10.9679 0 0
            CHANNELS 3 Zrotation Xrotation Yrotation
            JOINT RightShoulder
            {
              OFFSET 2.46616 -1.6653 3.69651
              CHANNELS 3 Zrotation Xrotation Yrotation
              JOINT RightArm
              {
                OFFSET 13.0012 0 0
                CHANNELS 3 Zrotation Xrotation Yrotation
                JOINT RightForeArm
                {
                  OFFSET 28.7848 1.52588e-005 0
                  CHANNELS 3 Zrotation Xrotation Yrotation
                  JOINT RightHand
                  {
                    OFFSET 26.5688 1.52588e-005 0
                    CHANNELS 3 Zrotation Xrotation Yrotation
                    End Site
                    {
                      OFFSET 0 0 0
                    }
                  }
                }
              }
            }
            JOINT LeftShoulder
            {
              OFFSET 2.38034 -1.29275 -3.75231
              CHANNELS 3 Zrotation Xrotation Yrotation
              JOINT LeftArm
              {
                OFFSET 16.3182 6.10352e-005 0
                CHANNELS 3 Zrotation Xrotation Yrotation
                JOINT LeftForeArm
                {
                  OFFSET 27.0901 0 0
                  CHANNELS 3 Zrotation Xrotation Yrotation
                  JOINT LeftHand
                  {
                    OFFSET 24.5451 1.52588e-005 0
                    CHANNELS 3 Zrotation Xrotation Yrotation
                    End Site
                    {
                      OFFSET 0 0 0
                    }
                  }
                }
              }
            }
            JOINT Neck
            {
              OFFSET 5.0226 -0.0266342 0
              CHANNELS 3 Zrotation Xrotation Yrotation
              JOINT Head
              {
                OFFSET 6.69363 2.86102e-005 0
                CHANNELS 3 Zrotation Xrotation Yrotation
                End Site
                {
                  OFFSET 0 0 0
                }
              }
            }
          }
        }
      }
    }
  }
}
MOTION
Frames:	6
Frame Time:	0.0333333
-57.1574 89.7611 133.762 -92.2974 34.4439 -101.632 178.656 24.9972 74.4086 -61.1964 -23.0837 -1.19027 -1.08598 -24.6753 -47.6402 28.7808 7.32959e-006 -8.17764e-006 177.616 24.435 77.6353 -4.09968 10.2241 0.642263 65.7992 -22.1587 -12.3467 28.7808 1.19257e-005 2.76788e-005 -2.35704 7.15501 -83.8925 12.3521 0.0209283 0.915235 0.68086 0.0608769 0.913348 -21.8519 -0.253384 0.879738 -1.83922 -0.253387 0.879718 89.041 -68.7618 -98.3442 -2.79416 38.1537 5.2185 47.6448 30.0521 -70.435 6.94915 3.00055 38.3475 -128.324 -75.2393 39.9414 -31.092 -5.51484 -44.6836 4.48132 52.5429 -5.56457 -110.035 14.0097 -14.7003 21.5022 -1.54065 -0.134931 -3.27184 -1.42227 -0.613565 
-59.3852 89.5775 132.417 -92.7206 33.8839 -100.066 177.784 22.394 75.8832 -61.4758 -21.2718 -1.63411 3.95036 -26.2096 -45.657 28.7808 7.32959e-006 -8.17764e-006 178.193 27.1869 79.6807 -4.19883 13.1765 0.827011 66.4828 -14.6984 -8.0026 28.7808 1.19257e-005 2.76788e-005 -2.1417 7.21923 -84.9528 12.2827 0.0124715 0.869672 0.611462 0.0508924 0.868241 -21.9215 -0.250272 0.833416 -1.90882 -0.250284 0.833411 90.9434 -68.186 -96.0643 -5.16709 37.5375 10.2197 44.4554 30.5228 -67.783 7.76863 3.19849 36.8476 -127.088 -74.7577 41.0573 -30.6639 -5.99005 -44.058 4.55472 53.2844 -5.63852 -108.76 13.1764 -14.3122 21.6173 -2.12513 -0.103878 -2.86337 -2.00483 -1.33853 
-61.5393 88.6228 130.96 -92.5667 33.6336 -99.4101 177.318 20.9351 76.6658 -63.0882 -18.9355 -1.93657 9.58569 -28.1845 -43.9751 28.7808 7.32959e-006 -8.17764e-006 178.203 27.0005 80.6236 -4.09857 10.0707 0.623425 62.344 -19.7493 -11.6084 28.7808 1.19257e-005 2.76788e-005 -1.86274 7.25526 -85.6197 12.2545 0.0492018 0.769832 0.583341 0.0829852 0.7669 -21.9501 -0.184339 0.749064 -1.93744 -0.184363 0.749047 91.7052 -67.7408 -95.1712 -6.10283 36.2001 13.2087 38.2783 30.1903 -62.9841 5.16183 2.1569 36.2798 -126.331 -74.353 41.6933 -30.295 -6.36 -43.4732 4.85478 53.9953 -5.99264 -107.664 12.4979 -14.0414 21.6369 -2.57601 0.692978 -1.77944 -2.71753 -2.25694 
-64.1516 86.7191 128.871 -92.0228 33.59 -100.17 177.496 19.5915 76.416 -65.8827 -15.8745 -2.29466 16.7012 -30.7648 -42.147 28.7808 7.32959e-006 -8.17764e-006 178.493 25.0855 81.0266 -4.69312 19.4561 1.24661 63.862 -25.1224 -14.5768 28.7808 1.19257e-005 2.76788e-005 -1.81948 7.2532 -85.5487 12.2678 0.0783891 0.724565 0.596617 0.110718 0.720469 -21.937 -0.144073 0.714297 -1.92428 -0.144091 0.714277 91.6848 -67.3789 -95.2553 -7.05795 34.6667 16.1159 32.037 29.7107 -57.5638 6.13962 2.64114 37.941 -126.287 -74.2639 41.701 -29.056 -6.31818 -32.8064 21.3521 38.5621 -31.5565 -115.32 2.38572 -5.99789 21.9079 -2.5365 1.76414 -0.473039 -3.05275 -3.05735 
-65.8159 88.3413 127.193 -92.1208 34.5302 -98.556 175.386 15.1782 78.1989 -60.1893 -16.4939 -2.57501 18.6721 -31.1861 -41.0645 28.7808 7.32959e-006 -8.17764e-006 179.896 33.188 83.3144 -25.4704 17.1046 0.754185 40.7596 -17.1684 -14.7466 28.7808 1.19257e-005 2.76788e-005 -0.55978 7.28984 -88.7066 12.2545 0.0952196 1.18196 0.582986 0.145926 1.17676 -21.9478 -0.267551 1.15496 -1.93513 -0.267547 1.15494 90.5058 -68.2699 -96.6034 -7.67703 32.9146 19.0681 28.3125 30.3076 -53.1755 6.82853 3.10398 40.6374 -123.256 -74.0978 44.9707 -28.0281 -6.89533 -26.1247 25.0423 30.7042 -41.7148 -117.672 -2.95038 -2.55548 21.827 -2.52923 0.457874 0.515079 -2.62703 -2.30198 
-68.3169 87.5998 124.966 -89.5489 31.5922 -100.801 172.684 14.9185 77.753 -58.8214 -14.589 -2.12907 23.7659 -33.0942 -39.6965 28.7808 7.32959e-006 -8.17764e-006 179.297 34.743 82.9748 -24.1796 27.6612 1.77414 46.0929 -12.3741 -9.37749 28.7808 1.19257e-005 2.76788e-005 -0.471013 6.97396 -90.3858 12.9619 -0.043142 1.71441 1.28979 0.0323368 1.71465 -21.2371 -0.556333 1.62223 -1.22445 -0.556355 1.62222 92.8489 -68.9425 -93.5757 -6.04989 29.9246 20.3596 23.9264 32.0986 -46.6249 5.72043 2.77054 42.3591 -126.972 -74.127 40.8812 -26.6399 -8.43908 -20.1622 28.5568 27.9625 -48.6583 -118.988 -4.60177 -1.58014 22.3941 -3.112 1.52646 0.0727898 -3.55541 -3.19507 
